<svg xmlns="http://www.w3.org/2000/svg" xmlns:xlink="http://www.w3.org/1999/xlink" viewBox="0 0 664 290" width="664" height="290"><path d="M 164.500,98.000 C 168.738,94.488 169.000,95.500 173.500,93.000" stroke-width="20.597" stroke="black" fill="none" stroke-linecap="round"></path><path d="M 173.500,93.000 C 177.014,92.768 176.738,91.988 180.500,93.000" stroke-width="17.098" stroke="black" fill="none" stroke-linecap="round"></path><path d="M 180.500,93.000 C 185.931,91.645 184.514,93.268 188.500,94.000" stroke-width="17.846" stroke="black" fill="none" stroke-linecap="round"></path><path d="M 188.500,94.000 C 191.495,98.776 191.931,97.145 192.500,104.000" stroke-width="17.219" stroke="black" fill="none" stroke-linecap="round"></path><path d="M 192.500,104.000 C 193.271,111.992 193.995,111.776 193.500,120.000" stroke-width="12.842" stroke="black" fill="none" stroke-linecap="round"></path><path d="M 193.500,120.000 C 194.632,129.659 193.771,129.492 193.500,139.000" stroke-width="11.250" stroke="black" fill="none" stroke-linecap="round"></path><path d="M 193.500,139.000 C 192.402,146.405 192.632,146.159 189.500,153.000" stroke-width="11.740" stroke="black" fill="none" stroke-linecap="round"></path><path d="M 189.500,153.000 C 186.265,158.685 186.902,158.905 182.500,164.000" stroke-width="12.418" stroke="black" fill="none" stroke-linecap="round"></path><path d="M 182.500,164.000 C 178.033,171.098 177.765,170.685 172.500,177.000" stroke-width="11.725" stroke="black" fill="none" stroke-linecap="round"></path><path d="M 213.500,90.000 C 217.626,92.979 216.000,93.500 218.500,97.000" stroke-width="17.987" stroke="black" fill="none" stroke-linecap="round"></path><path d="M 218.500,97.000 C 218.500,105.000 220.126,104.479 218.500,113.000" stroke-width="12.975" stroke="black" fill="none" stroke-linecap="round"></path><path d="M 218.500,113.000 C 218.500,124.500 218.500,124.500 218.500,136.000" stroke-width="11.250" stroke="black" fill="none" stroke-linecap="round"></path><path d="M 218.500,136.000 C 218.500,148.500 218.500,148.500 218.500,161.000" stroke-width="11.250" stroke="black" fill="none" stroke-linecap="round"></path><path d="M 218.500,161.000 C 218.500,173.000 218.500,173.000 218.500,185.000" stroke-width="11.250" stroke="black" fill="none" stroke-linecap="round"></path><path d="M 218.500,185.000 C 218.500,193.500 218.500,193.500 218.500,202.000" stroke-width="11.250" stroke="black" fill="none" stroke-linecap="round"></path><path d="M 154.500,210.000 C 160.642,216.903 159.000,217.500 163.500,225.000" stroke-width="14.683" stroke="black" fill="none" stroke-linecap="round"></path><path d="M 163.500,225.000 C 164.450,234.627 166.642,233.903 166.500,244.000" stroke-width="11.250" stroke="black" fill="none" stroke-linecap="round"></path><path d="M 166.500,244.000 C 168.351,250.553 167.950,250.627 170.500,257.000" stroke-width="11.871" stroke="black" fill="none" stroke-linecap="round"></path><path d="M 228.500,194.000 C 232.500,194.000 232.500,194.000 236.500,194.000" stroke-width="22.500" stroke="black" fill="none" stroke-linecap="round"></path><path d="M 236.500,194.000 C 244.619,191.381 242.000,194.000 247.500,194.000" stroke-width="15.190" stroke="black" fill="none" stroke-linecap="round"></path><path d="M 247.500,194.000 C 248.694,199.224 250.119,196.381 247.500,204.000" stroke-width="16.587" stroke="black" fill="none" stroke-linecap="round"></path><path d="M 247.500,204.000 C 244.394,213.174 245.194,213.224 240.500,222.000" stroke-width="11.828" stroke="black" fill="none" stroke-linecap="round"></path><path d="M 240.500,222.000 C 237.637,230.866 236.894,230.174 232.500,238.000" stroke-width="11.250" stroke="black" fill="none" stroke-linecap="round"></path><path d="M 232.500,238.000 C 228.263,243.878 228.637,243.366 222.500,247.000" stroke-width="11.814" stroke="black" fill="none" stroke-linecap="round"></path><path d="M 222.500,247.000 C 215.618,249.576 216.263,250.378 208.500,251.000" stroke-width="12.244" stroke="black" fill="none" stroke-linecap="round"></path><path d="M 208.500,251.000 C 200.294,251.201 200.618,252.576 192.500,253.000" stroke-width="11.748" stroke="black" fill="none" stroke-linecap="round"></path><path d="M 192.500,253.000 C 187.540,255.110 187.294,254.201 182.500,257.000" stroke-width="12.888" stroke="black" fill="none" stroke-linecap="round"></path><path d="M 170.500,204.000 C 178.643,199.044 179.000,200.500 187.500,197.000" stroke-width="19.088" stroke="black" fill="none" stroke-linecap="round"></path><path d="M 187.500,197.000 C 198.475,195.459 198.143,194.544 209.500,195.000" stroke-width="11.250" stroke="black" fill="none" stroke-linecap="round"></path><path d="M 209.500,195.000 C 222.591,193.946 222.475,194.459 235.500,195.000" stroke-width="11.250" stroke="black" fill="none" stroke-linecap="round"></path><path d="M 235.500,195.000 C 247.016,196.912 247.091,195.946 258.500,199.000" stroke-width="11.250" stroke="black" fill="none" stroke-linecap="round"></path></svg>